# xmcd
#
# Track frame offsets:
#	150
#	19024
#	37270
#	58446
#	79565
#	103439
#	122178
#	140089
#	159986
#	176880
#	197365
#	222085
#	239555
#	259423
#	278830
#
# Disc length: 3962 seconds
#
# Revision: 0
# Processed by: cddbd v1.5.1PL0 Copyright (c) Steve Scherf et al.
# Submitted via: audiograbber 1.81.01
#
DISCID=e90f780f
DTITLE=Andrea Bocelli - Romanza
DYEAR=1900
DGENRE=Vocal
TTITLE0=Por Ti Volaré (Con Te Partirò)
TTITLE1=Vivere (con Gerardina Trovato)
TTITLE2=Por Amor (Per Amore)
TTITLE3=El Silencio De La Espera (Il Mare Calmo Della Sera)
TTITLE4=Caruso
TTITLE5=Macchine Da Guerra
TTITLE6=Le Tue Parole
TTITLE7=Vivo por Ella (Vivo Per Lei)  (con Marta Sánchez)
TTITLE8=Romanza
TTITLE9=La Luna Che Non C'è
TTITLE10=Rapsodia
TTITLE11=Voglio Restare Cosi`
TTITLE12=E Chiove
TTITLE13=Miserere - Live (con John Miles)
TTITLE14=Time to Say Goodbye (Con Te Partirò) Feat. Sarah Brightman
EXTD=YEAR:       ID3G:  28
EXTT0=
EXTT1=
EXTT2=
EXTT3=
EXTT4=
EXTT5=
EXTT6=
EXTT7=
EXTT8=
EXTT9=
EXTT10=
EXTT11=
EXTT12=
EXTT13=
EXTT14=
PLAYORDER=
